<?xml version="1.0" encoding="UTF-8" standalone="no"?>
<!-- Created with Inkscape (http://www.inkscape.org/) -->

<svg
   version="1.1"
   id="svg1"
   width="634.57678"
   height="665.55469"
   viewBox="0 0 634.57678 665.55469"
   sodipodi:docname="ChatGPT Image Sep 16, 2025 at 06_53_25 PM.png"
   xmlns:inkscape="http://www.inkscape.org/namespaces/inkscape"
   xmlns:sodipodi="http://sodipodi.sourceforge.net/DTD/sodipodi-0.dtd"
   xmlns="http://www.w3.org/2000/svg"
   xmlns:svg="http://www.w3.org/2000/svg">
   <rect width="100%" height="100%" fill="#ff6caeff"/>
  <defs
     id="defs1" />
  <sodipodi:namedview
     id="namedview1"
     pagecolor="#FF10F0"
     bordercolor="#000000"
     borderopacity="0.25"
     inkscape:showpageshadow="2"
     inkscape:pageopacity="0.0"
     inkscape:pagecheckerboard="0"
     inkscape:deskcolor="#d1d1d1">
    <inkscape:page
       x="0"
       y="0"
       width="634.57678"
       height="665.55469"
       id="page2"
       margin="0"
       bleed="0" />
  </sodipodi:namedview>
  <g
     inkscape:groupmode="layer"
     inkscape:label="Image"
     id="g1"
     transform="translate(-194.80779,-177.10269)">
    <path
       style="fill:#10100d;stroke:none"
       d="m 373,726 c -1.79532,22.57654 -1.00391,45.35553 -0.99994,68 0.003,15.82141 0.6565,31.58765 14.04758,42.3255 22.29468,17.87738 56.89038,-6.91437 77.95236,-16.69641 5.65601,-2.62689 12.54727,-7.77698 19,-7.55182 10.58969,0.36939 19.54889,7.89356 31,7.38501 9.51965,-0.42273 21.43304,-9.45679 30.20837,-6.828 18.02991,5.40118 35.55109,15.89953 52.79163,23.47107 10.37677,4.55719 21.71735,9.09088 33,4.88037 C 639.79272,837.3313 647.73853,828.0293 650.33252,818 653.46356,805.89435 652,792.39587 652,780 c 0,-17.85498 1.29803,-36.2699 -1,-54 69.28833,-14.37628 131.43286,-68.18555 153.94391,-135 11.83679,-35.13245 13.09424,-74.49731 8.31842,-111 -3.50281,-26.77289 -9.80011,-53.36755 -18.26605,-79 -3.80341,-11.51569 -14.09198,-28.70459 -13.68274,-40.71887 0.17077,-5.01306 5.40649,-8.92328 8.5346,-12.28754 6.5495,-7.04394 12.39808,-14.77923 17.4029,-22.99359 20.31323,-33.34009 23.6795,-70.87848 21.60095,-109 -0.66473,-12.19086 0.0319,-35.37378 -15.8559,-37.70093 C 803.00116,176.83508 792.09186,178 782,178 c -31.90649,0 -63.81018,3.26892 -93,17.2052 -11.15637,5.32648 -21.70673,12.05902 -30.99866,20.23041 -4.2102,3.70251 -9.341,11.44995 -15.20971,12.33319 -4.61176,0.69403 -9.8476,-3.07245 -13.79163,-5.00391 -8.0766,-3.95526 -16.43903,-7.30645 -25,-10.06207 -26.18713,-8.42908 -54.4884,-13.04266 -82,-13.66327 -31.50989,-0.71081 -62.68274,2.16766 -93,11.12463 -10.90298,3.2212 -21.59274,7.15821 -32,11.73035 -4.44705,1.95368 -10.59366,6.13123 -15.62195,5.59339 -5.11084,-0.5467 -9.27029,-6.66736 -12.75989,-9.9292 C 361.44547,210.85419 353.5011,205.06995 345,200.16815 312.68271,181.53369 276.52551,178 240,178 c -9.98022,0 -28.17328,-3.46619 -36.37767,3.22644 -9.12038,7.43988 -8.21613,27.03864 -8.55775,37.77356 -1.1435,35.93262 0.87429,71.24725 19.7566,103 5.09029,8.55994 10.97409,16.54822 17.58316,24 3.49597,3.94171 9.29814,8.37396 9.82445,14 1.02501,10.95703 -9.4162,27.51953 -12.89345,38 -8.41018,25.34845 -14.68121,51.54474 -18.32947,78 -5.58491,40.4989 -4.13691,84.43085 10.47777,123 C 245.24283,661.70215 307.34128,712.37671 373,726 M 803,201 c 3.84528,36.84845 3.98474,74.60193 -14.28015,108 -5.4195,9.90979 -12.2843,19.10577 -20.73255,26.64172 -5.1408,4.5857 -13.94165,8.91626 -15.17657,16.3722 -0.99493,6.00683 3.05377,12.66436 5.33209,17.98608 4.88935,11.42053 9.64209,22.97955 12.85718,35 l -24,2 C 744.25189,393.95026 737.74866,380.48444 729.53241,370.00006 678.26361,304.57819 576.48547,324.07941 550,402 L 514,395.04657 474,403 C 456.159,337.59692 371.76834,307.53595 317,348.03333 304.75409,357.08832 293.53876,368.5863 286.16827,382 c -3.22277,5.86517 -5.79135,20.54553 -11.93026,23.64697 C 268.76364,408.41266 258.9368,405.34509 253,405 c 2.03905,-12.41901 7.86407,-24.54193 12.8927,-36 2.46689,-5.62097 6.64157,-12.58551 4.75079,-18.92847 -3.14422,-10.54797 -19.90992,-19.03802 -26.66436,-28.07171 C 224.58432,296.06036 215.83766,262.28937 218.28114,230 c 0.5148,-6.80286 -1.23224,-21.34692 3.41918,-26.74719 4.71541,-5.47461 24.62803,-2.46717 31.29968,-2.10498 32.36801,1.75726 66.29791,7.60815 91.9986,28.74377 8.57623,7.05292 19.13342,28.49072 31.00457,28.58447 6.5167,0.0515 12.54285,-5.10974 17.99683,-8.08801 9.28241,-5.06885 19.05936,-8.75226 29,-12.29169 30.0303,-10.69256 63.10565,-16.04504 95,-15.03179 30.41461,0.96624 60.51093,5.99646 89,16.75012 9.02863,3.40802 17.70453,7.49536 26,12.44055 4.76691,2.84173 10.07483,7.08465 15.98724,6.08691 8.93714,-1.50818 14.31464,-12.04345 19.63794,-18.33905 C 676.24677,230.98944 685.64795,223.98846 696,218.39716 728.22296,200.99304 767.38159,201 803,201 M 368,352.40515 C 433.19055,345.38733 478.61429,420.77216 439.46512,474 433.33572,482.33362 425.8024,489.65442 417,495.11707 c -10.63074,6.59729 -22.59473,10.14904 -35,11.40161 -9.29422,0.93847 -19.05304,-0.44739 -28,-3.01386 -63.48605,-18.2113 -75.98956,-104.72357 -20,-139.70795 10.18433,-6.36352 22.08206,-10.10876 34,-11.39172 m 273,-0.0167 c 64.54419,-6.46497 108.77008,68.40484 71.39014,121.61145 -5.89209,8.38678 -13.67896,15.36523 -22.39014,20.7157 -11.37134,6.98437 -23.77753,10.60089 -37,11.81128 -9.27625,0.84918 -19.10516,-0.67383 -28,-3.34156 -63.42633,-19.02258 -75.02124,-105.42059 -18,-139.60034 10.42297,-6.24774 21.91443,-9.98602 34,-11.19653 m -255,54.35577 c -33.78983,5.87317 -27.76096,68.18354 6.99994,61.62433 32.34567,-6.10345 26.92703,-67.5213 -6.99994,-61.62433 m 245,0.009 c -33.36047,5.8432 -26.29675,68.08655 7.99994,61.61493 C 671.91608,462.15747 664.96832,400.80402 631,406.75366 M 559,478 c -30.84137,-6.74261 -62.26199,-8.35071 -93,0 3.35468,-10.4101 7.81876,-20.18756 9.93484,-31 1.09324,-5.58606 0.32023,-14.237 3.75937,-18.95648 2.96521,-4.06915 9.71927,-5.55976 14.30582,-6.79852 12.46591,-3.36683 39.96103,-5.98023 49.74735,4.98663 3.92712,4.40088 2.78857,14.18176 3.7561,19.76837 1.96387,11.33942 6.16125,21.85699 11.49652,32 M 274,431 c 1.15295,42.90814 32.18094,83.74304 74,95.05518 19.06821,5.15795 35.91046,3.24328 55,-0.0552 -5.73825,12.91028 -10.3468,25.68127 -10.68961,40 -0.8796,36.74011 26.61618,68.6568 58.68961,83.05957 64.5755,28.99805 179.46564,6.1217 180.9538,-81.05957 0.25366,-14.86108 -4.24604,-28.48608 -9.9538,-42 43.90222,9.59644 89.96484,-5.3927 113.54608,-46 8.8913,-15.31097 12.58942,-31.57343 14.45392,-49 l 28,-3 c 19.48505,77.10919 23.29718,167.24451 -41.00055,225.69537 C 722.70276,666.69202 706.276,677.85352 689,686.50708 c -13.96014,6.99255 -32.23706,16.30493 -48,17.625 -12.12109,1.01514 -20.02014,-6.44861 -33,-2.04883 -21.37219,7.24439 -41.71283,26.17847 -64,29.82361 -11.11505,1.81793 -22.47131,-9.82507 -35,-8.44067 -9.22058,1.0188 -19.08502,9.16381 -28,8.25189 -7.24341,-0.74097 -14.55911,-5.82733 -21,-8.92841 -15.13943,-7.28906 -30.82355,-16.83087 -47,-21.50152 -11.60712,-3.35138 -20.89365,3.54229 -32,1.47778 -33.13528,-6.15924 -67.07208,-25.09985 -91.99945,-47.2608 C 242.2211,613.91718 227.69954,552.31262 233.55853,492 c 1.51049,-15.54901 3.97797,-30.79736 7.59503,-46 1.094,-4.59808 1.71341,-13.26636 5.92716,-16.19312 5.6589,-3.93054 20.48089,0.17615 26.91928,1.19312 m 223,64.37061 c 29.38623,-2.61866 62.23956,0.36053 85.99683,19.4646 30.82196,24.78515 34.07672,70.27722 4.84222,97.729 -18.48096,17.354 -43.23364,23.94049 -67.83905,26.06854 -29.71259,2.56976 -65.61801,-6.91608 -86.64624,-28.85504 C 400.78983,575.80334 417.63638,524.57227 457,505.28931 c 12.47043,-6.10889 26.25769,-8.6941 40,-9.9187 m -27.952,42.67321 c -18.35876,4.74793 -17.06665,60.3963 6.93473,54.17493 14.46359,-3.74902 14.19915,-34.08496 9.4097,-45.18542 -2.67014,-6.18854 -9.51505,-10.75574 -16.34443,-8.98951 m 78.96909,0.17621 c -14.34869,4.38288 -13.89825,33.25354 -9.79065,44.76233 2.39777,6.71808 9.53809,11.71253 16.742,9.58344 13.66114,-4.03748 12.91175,-34.65339 8.83674,-45.51587 -2.3169,-6.17597 -9.133,-10.86267 -15.78809,-8.8299 M 468,753 c -4.83279,13.78326 -3.27786,24.13287 0,38 -15.51553,6.58649 -30.65887,14.0249 -46,20.99939 -5.6098,2.55041 -13.30347,7.58154 -19.6048,4.54407 C 395.81253,813.3703 397.0032,804.008 397.00024,798 L 397,746 c 2.1e-4,-5.98102 -1.73187,-16.44775 4.53253,-20.01672 5.58963,-3.18457 13.41617,1.90033 18.46747,4.20434 16.11713,7.35156 31.95187,15.30982 48,22.81238 m 88,38 c 3.61963,-13.70789 5.01862,-24.37616 0,-38 15.23566,-6.77942 30.07568,-14.31885 45,-21.74792 5.51349,-2.74451 13.43884,-8.09449 19.84869,-5.66962 7.59473,2.87311 6.15064,12.9649 6.15131,19.41754 v 52 c -4.3e-4,5.67352 1.45508,14.66638 -3.68036,18.64154 C 617.65002,820.03015 609.41589,815.2868 604,812.76331 588.08191,805.34631 572.02161,798.18335 556,791 m -47.99994,-42.4068 c 30.29749,-5.47687 38.56506,41.41211 7.99994,46.35992 -29.9119,4.84205 -37.96561,-40.94305 -7.99994,-46.35992 z"
       id="path1" />
  </g>
</svg>
